<?xml version="1.0" encoding="utf-8"?>
<!-- Generator: Adobe Illustrator 16.0.0, SVG Export Plug-In . SVG Version: 6.00 Build 0)  -->
<!DOCTYPE svg PUBLIC "-//W3C//DTD SVG 1.1//EN" "http://www.w3.org/Graphics/SVG/1.1/DTD/svg11.dtd">
<svg version="1.1" id="Layer_1" xmlns="http://www.w3.org/2000/svg" xmlns:xlink="http://www.w3.org/1999/xlink" x="0px" y="0px"
	 width="242px" height="242px" viewBox="0 0 242 242" enable-background="new 0 0 242 242" xml:space="preserve">
<path fill="#010A27" d="M217.584,174.831v20.357h2.297v-20.357H217.584z M207.608,187.772h-9.276l4.652-10.382L207.608,187.772z
	 M204.09,174.687h-2.152l-9.276,20.502h2.355l2.413-5.38h11.081l2.384,5.38h2.473L204.09,174.687z M174.514,176.954h6.835v-2.123
	h-15.966v2.123h6.833v18.234h2.298V176.954z M162.067,174.831h-14.716v20.357h14.861v-2.094h-12.563v-7.125h11.109v-2.094h-11.109
	v-6.95h12.418V174.831z M129.351,195.188h13.756v-2.123h-11.459v-18.234h-2.297V195.188z M121.295,186.028v9.16h2.298v-20.357
	h-2.298v9.045h-11.749v-9.045h-2.297v20.357h2.297v-9.16H121.295z M100.763,181.403c0,0.679-0.13,1.295-0.393,1.848
	c-0.262,0.552-0.645,1.027-1.139,1.425c-0.495,0.397-1.086,0.702-1.779,0.916c-0.688,0.213-1.454,0.319-2.288,0.319h-5.045v-8.957
	h5.162c1.653,0,2.981,0.373,3.979,1.12C100.264,178.82,100.763,179.931,100.763,181.403z M103.061,181.316
	c0-1.008-0.18-1.914-0.538-2.719c-0.359-0.805-0.873-1.483-1.542-2.036c-0.668-0.553-1.473-0.979-2.414-1.279
	c-0.94-0.301-1.982-0.451-3.126-0.451h-7.619v20.357h2.297v-7.183h4.944c1.085,0,2.113-0.141,3.083-0.422
	c0.97-0.281,1.818-0.703,2.545-1.266c0.727-0.562,1.304-1.26,1.73-2.094C102.847,183.391,103.061,182.422,103.061,181.316z
	 M78.05,187.772h-9.277l4.653-10.382L78.05,187.772z M74.531,174.687h-2.152l-9.277,20.502h2.355l2.414-5.38h11.081l2.384,5.38
	h2.472L74.531,174.687z M57.635,181.011c0,0.66-0.131,1.256-0.393,1.779c-0.262,0.528-0.625,0.97-1.096,1.328
	c-0.465,0.358-1.018,0.64-1.662,0.833c-0.64,0.194-1.338,0.292-2.099,0.292h-6.267v-8.289h6.296c1.653,0,2.937,0.354,3.848,1.066
	C57.179,178.729,57.635,179.727,57.635,181.011z M60.659,195.188l-6.252-8.313c0.794-0.136,1.531-0.368,2.21-0.698
	c0.678-0.329,1.265-0.741,1.759-1.235c0.495-0.494,0.877-1.076,1.149-1.745c0.271-0.669,0.407-1.43,0.407-2.283
	c0-0.911-0.174-1.744-0.523-2.491c-0.349-0.746-0.844-1.386-1.483-1.919s-1.41-0.945-2.312-1.236
	c-0.901-0.291-1.914-0.437-3.039-0.437h-8.754v20.357h2.297v-7.91h5.816l5.904,7.91H60.659z M38.645,192.436v-8.095H30.24v2.036
	h6.194v5.079c-0.698,0.567-1.561,1.047-2.588,1.444c-1.027,0.402-2.123,0.602-3.286,0.602c-1.241,0-2.355-0.214-3.344-0.64
	c-0.989-0.427-1.832-1.023-2.53-1.779c-0.698-0.756-1.236-1.652-1.614-2.694c-0.378-1.038-0.567-2.172-0.567-3.394
	c0-1.144,0.194-2.229,0.582-3.247c0.388-1.022,0.921-1.91,1.6-2.666c0.679-0.756,1.493-1.362,2.443-1.808
	c0.95-0.446,1.987-0.669,3.112-0.669c0.717,0,1.372,0.058,1.963,0.175c0.591,0.116,1.135,0.275,1.629,0.479
	c0.494,0.203,0.955,0.446,1.381,0.727c0.426,0.281,0.833,0.597,1.221,0.945l1.483-1.745c-0.504-0.426-1.023-0.809-1.556-1.148
	c-0.533-0.339-1.105-0.625-1.716-0.857c-0.61-0.232-1.27-0.407-1.978-0.523c-0.708-0.117-1.488-0.175-2.341-0.175
	c-1.531,0-2.923,0.286-4.173,0.858c-1.25,0.571-2.321,1.343-3.213,2.312c-0.892,0.97-1.585,2.094-2.08,3.373
	c-0.495,1.28-0.742,2.618-0.742,4.014c0,1.454,0.238,2.821,0.713,4.101s1.163,2.395,2.064,3.344c0.902,0.95,1.987,1.697,3.257,2.24
	c1.27,0.542,2.709,0.814,4.319,0.814c1.725,0,3.281-0.306,4.667-0.917C36.527,194.016,37.695,193.283,38.645,192.436z"/>
<g>
	<defs>
		<path id="SVGID_1_" d="M160.98,95.857c-0.632,0-1.145-0.512-1.145-1.144s0.513-1.144,1.145-1.144s1.144,0.512,1.144,1.144
			S161.612,95.857,160.98,95.857 M146.482,100.275c-0.532-0.108-0.914-0.579-0.914-1.121c0-0.632,0.513-1.145,1.145-1.145
			s1.144,0.512,1.144,1.145c0,0.582-0.438,1.073-1.017,1.138l-0.025,0.002l-0.308-0.014L146.482,100.275z M148.479,120.794
			c0-0.632,0.513-1.145,1.145-1.145s1.145,0.513,1.145,1.145c0,0.632-0.513,1.144-1.145,1.144S148.479,121.427,148.479,120.794z
			 M98.537,142.494c0.632,0,1.144,0.513,1.144,1.145s-0.512,1.145-1.144,1.145c-0.632,0-1.144-0.513-1.144-1.145
			S97.905,142.494,98.537,142.494z M65.908,67.138c0.632,0,1.144,0.512,1.144,1.144s-0.512,1.144-1.144,1.144
			s-1.144-0.512-1.144-1.144S65.276,67.138,65.908,67.138z M170.636,107.842l0.005,0.05l-0.305,0.049
			c-5.282,0.847-16.999,2.539-20.904-1.953c-1.021-1.174-1.346-2.641-1.286-4.164l0.007-0.167l0.14-0.092
			c0.813-0.534,1.302-1.437,1.302-2.41c0-1.591-1.29-2.882-2.881-2.882s-2.883,1.29-2.883,2.882c0,1.012,0.53,1.947,1.396,2.469
			l0.16,0.097l-0.004,0.188c-0.184,8.496,8.564,9.94,15.245,9.813c3.837-0.073,7.628-0.64,11.422-1.264l0.274-0.031
			c0.283-0.033,0.562-0.082,0.865-0.158l1.28-0.212l-0.045-0.274l0.183-0.115c0.233-0.146,0.454-0.313,0.656-0.5
			c3.362-3.105,0.723-10.338-0.687-13.877c-1.842-4.624-4.567-9.025-8.686-11.945l-0.051-0.037l-0.094-0.054
			c-4.216-2.325-5.77-5.434-6.61-10.036l-0.021-0.116l-0.04-0.11c-0.543-1.493-1.545-3.863-3.45-3.842
			c-2.362,0.026-3.408,3.859-3.896,5.664l-0.006,0.019l-0.007,0.018c-1.139,2.826-1.103,5.959-3.167,8.413
			c-3.518,4.183-12.418,5.517-17.61,6.114l-0.257,0.029c-6.146,0.396-13.389,1.489-18.943,4.238l-0.019,0.009l-0.021,0.007
			c-7.165,2.427-13.147,7.761-17.585,13.767c-0.631,0.854-1.231,1.733-1.797,2.634l-0.153,0.244l-0.521-0.247l0.092-0.273
			c1.556-4.609,3.648-9.045,5.955-13.322l0.025-0.044l0.037-0.086c3.846-9.293,7.502-21.367,5.708-31.463
			c-1.114-6.269-4.469-11.752-10.697-13.936c-0.836-0.293-1.696-0.515-2.569-0.666c-7.28-1.262-16.368,1.488-21.299,7.096
			c-1.886,2.145-3.159,4.668-3.707,7.475l-0.134,0.687l-0.169,0.064c-1.117,0.424-1.858,1.499-1.858,2.694
			c0,1.591,1.291,2.882,2.882,2.882s2.882-1.29,2.882-2.882c0-0.794-0.325-1.547-0.9-2.092l-0.13-0.123l0.137-0.702
			c1.006-5.168,4.898-8.736,9.585-10.743c3.689-1.58,8.264-2.323,12.239-1.635c0.723,0.125,1.435,0.308,2.127,0.55
			c5.265,1.846,7.958,6.552,8.893,11.814c1.686,9.483-1.914,21.115-5.525,29.884c-5.267,9.76-10.463,22.508-8.208,33.766
			c0.679,3.39,2.019,6.526,4.054,9.341l-0.002-0.002c0.06,0.084,0.122,0.169,0.186,0.256l0.616,0.853l0.024-0.018l0.193,0.233
			c0.061,0.073,0.121,0.146,0.182,0.218c0.995,1.172,2.103,2.245,3.288,3.225l0.131,0.108l-0.014,0.17
			c-0.007,0.084-0.011,0.169-0.011,0.253c0,1.591,1.29,2.881,2.881,2.881s2.882-1.29,2.882-2.881s-1.291-2.882-2.882-2.882
			c-0.347,0-0.691,0.063-1.017,0.186l-0.177,0.066l-0.146-0.121c-1.018-0.852-1.971-1.781-2.831-2.793
			c-0.315-0.371-0.62-0.751-0.905-1.146l-0.131-0.183c-6.348-8.809-2.896-19.708,3.006-27.7c0.358-0.485,0.728-0.961,1.107-1.43
			l0.05-0.061l0.072-0.032c9.771-4.286,21.1-6.867,31.474-3.139c7.624,2.739,13.385,8.387,17.9,14.955l0.102,0.146l-0.07,0.165
			c-0.151,0.356-0.229,0.738-0.229,1.125c0,1.591,1.29,2.881,2.882,2.881s2.881-1.29,2.881-2.881s-1.289-2.882-2.881-2.882
			c-0.046,0-0.093,0.001-0.139,0.003l-0.182,0.008l-0.102-0.15c-4.803-7.091-11.058-13.031-19.229-15.968
			c-8.649-3.107-17.808-2.227-26.421,0.514l-1.626,0.518l1.322-1.079c7.289-5.942,17.068-8.759,26.32-9.507l0.316-0.025l0.005,0.05
			l1.085-0.126c8.572-0.536,18.732,0.088,26.935,2.72l0.192,0.063l0.029,0.2c0.205,1.414,1.424,2.463,2.852,2.463
			c1.591,0,2.881-1.291,2.881-2.882s-1.29-2.881-2.881-2.881c-0.571,0-1.126,0.167-1.602,0.484l-0.131,0.088l-0.15-0.05
			c-4.51-1.49-9.352-2.298-14.073-2.737l-1.271-0.118l1.173-0.503c2.126-0.913,4.235-2.173,5.737-3.959
			c1.146-1.362,1.841-2.879,2.336-4.576c0.591-2.026,1.104-4.074,1.763-6.081c0.174-0.528,0.333-1.138,0.567-1.636l0.258-0.542
			l0.313,0.512c0.221,0.361,0.418,0.892,0.57,1.292l0.011,0.027l0.005,0.028c1.011,5.334,2.995,8.876,7.841,11.56l0.018,0.01
			l0.016,0.012c3.609,2.63,6.021,6.575,7.651,10.666c0.867,2.179,3.393,8.965,1.378,10.827c-0.224,0.206-0.498,0.341-0.787,0.428
			l-0.02,0.006l-0.021,0.003c-0.295,0.048-0.59,0.099-0.899,0.149L170.636,107.842z M175.158,131.771c0.469,0,0.85,0.381,0.85,0.85
			s-0.381,0.849-0.85,0.849c-0.47,0-0.85-0.38-0.85-0.849S174.688,131.771,175.158,131.771z M169.854,130.377
			c2.336-1.103,7.749-0.795,10.228-0.119c0.112,0.03,0.23,0.045,0.345,0.076l0.221,0.062l0.017,0.229
			c0.005,0.075,0.002,0.149,0.001,0.225c-0.036,1.434-0.479,3.313-1.35,4.472c-0.667,0.891-1.565,1.581-2.627,1.929l-0.426,0.14
			v-2.932l0.135-0.098c0.56-0.404,0.891-1.051,0.891-1.741c0-0.698-0.337-1.348-0.899-1.749l-0.035-0.024
			c-0.354-0.24-0.769-0.364-1.194-0.364c-1.182,0-2.14,0.958-2.14,2.14c0,0.689,0.332,1.335,0.891,1.736l0.135,0.098v2.93
			l-0.425-0.137c-0.336-0.109-0.661-0.252-0.97-0.424c-0.242-0.135-0.47-0.294-0.689-0.462l-0.016-0.012l-0.605-0.59
			c-1.056-1.137-1.765-3.573-1.671-5.109l0.012-0.192L169.854,130.377z M175.162,140.429c0.573-0.468,0.539-0.809,1.393-0.963
			c0.627-0.112,1.195-0.301,1.768-0.581c1.081-0.527,1.839-1.191,2.582-2.13c1.572-1.987,2.124-5.147,1.873-7.624l0,0
			c-2.676-1.325-4.733-1.639-7.694-1.63c-2,0.006-4.232,0.237-6.118,0.929c-0.398,0.146-1.362,0.438-1.441,0.929
			c-0.171,1.065,0.118,3.207,0.402,4.26c0.317,1.183,0.798,2.198,1.526,3.184c1.014,1.373,2.644,2.365,4.321,2.667
			C174.625,139.623,174.591,139.96,175.162,140.429z M159.043,114.176c0.632,0,1.144,0.512,1.144,1.144s-0.512,1.144-1.144,1.144
			s-1.145-0.512-1.145-1.144S158.411,114.176,159.043,114.176z M117.092,135.539c0.208-0.343,0.578-0.552,0.979-0.552
			c0.632,0,1.144,0.513,1.144,1.146c0,0.632-0.512,1.144-1.144,1.144s-1.144-0.512-1.144-1.144c0-0.038,0.001-0.076,0.005-0.115
			l0.003-0.036l0.138-0.411L117.092,135.539z M167.216,128.126c0.179-0.042,0.473-0.238,0.639-0.332
			c0.423-0.237,0.86-0.439,1.316-0.606c1.838-0.675,3.965-0.852,5.912-0.859c2.002-0.007,4.452,0.23,6.327,0.947
			c0.593,0.226,1.07,0.533,1.607,0.858c0.638-0.528,0.655-1.38,0.198-2.033c-1.089-1.558-4.478-2.187-6.264-2.335l-0.199-0.017
			l-0.075-0.186c-0.03-0.077-0.06-0.154-0.087-0.232l-0.035-0.099l0.03-0.102c0.071-0.242,0.131-0.485,0.187-0.726l0.239-1.28
			l-0.064-1.277c-0.209-2.135-0.961-4.126-2.81-5.356c-2.545-1.693-6.264-1.243-9.136-0.883c-1.06,0.133-2.114,0.3-3.179,0.391
			l-0.202,0.017l-0.104-0.174c-0.521-0.87-1.46-1.404-2.475-1.404c-1.592,0-2.882,1.291-2.882,2.882s1.29,2.881,2.882,2.881
			c0.964,0,1.859-0.479,2.396-1.28l0.088-0.131l0.158-0.012c1.226-0.09,2.441-0.277,3.66-0.43c2.027-0.254,5.494-0.735,7.264,0.442
			c1.173,0.781,1.524,2.258,1.614,3.58l0.047,0.68l-0.558-0.392c-0.326-0.23-0.68-0.419-1.053-0.565
			c-2.248-0.874-4.856,0-6.945,0.926c-2.582,1.146-5.002,2.617-7.492,3.94c-3,1.595-7.327,3.758-10.799,3.068
			c-2.688-0.533-4.381-2.677-5.55-5.001c-2.325-4.621-7.24-8.896-11.863-11.127c-6.082-2.936-12.536-3.056-18.473,0.29l-1.131,0.683
			l-0.97,0.871c-2.488,2.447-4.626,6.23-5.028,9.726c-0.794,6.917,4.762,10.887,10.609,12.906l0.182,0.063l0.033,0.188
			c0.238,1.379,1.44,2.387,2.839,2.387c1.591,0,2.882-1.29,2.882-2.881c0-1.592-1.29-2.882-2.882-2.882
			c-0.602,0-1.184,0.186-1.673,0.535l-0.136,0.097l-0.157-0.053c-5.271-1.783-10.389-5.174-8.665-11.524
			c0.694-2.557,2.552-5.477,4.579-7.184l0.017-0.014l0.019-0.012c5.31-3.357,11.156-3.412,16.755-0.709
			c4.069,1.964,8.549,5.811,10.597,9.882c1.575,3.129,3.907,5.759,7.479,6.468c4.272,0.848,8.949-1.38,12.633-3.339
			c2.434-1.294,4.79-2.736,7.313-3.854c1.293-0.573,3.44-1.416,4.827-0.877c0.301,0.117,0.637,0.445,0.863,0.679l0.446,0.458
			l-0.633,0.09c-1.177,0.166-2.359,0.435-3.448,0.921c-0.58,0.259-1.332,0.679-1.717,1.193
			C166.526,126.872,166.753,127.243,167.216,128.126z M125.291,137.505c0.632,0,1.145,0.512,1.145,1.144
			c0,0.633-0.512,1.145-1.145,1.145c-0.632,0-1.144-0.512-1.144-1.145C124.147,138.017,124.659,137.505,125.291,137.505z
			 M111.078,84.618c0.632,0,1.145,0.512,1.145,1.144s-0.512,1.144-1.145,1.144c-0.632,0-1.144-0.512-1.144-1.144
			S110.446,84.618,111.078,84.618z M113.091,153.459l1.029-0.793c3.983-3.066,7.438-7.023,10.428-11.041l0.116-0.157l0.193,0.03
			c0.144,0.021,0.288,0.032,0.434,0.032c1.592,0,2.883-1.29,2.883-2.882c0-1.591-1.291-2.881-2.883-2.881
			c-1.591,0-2.882,1.29-2.882,2.881c0,0.284,0.041,0.566,0.124,0.838l0.048,0.156l-0.104,0.143
			c-4.61,6.222-11.783,14.135-19.862,15.225c-2.391,0.323-4.742,0.02-6.978-0.884c-3.727-1.507-6.779-4.5-9.093-7.72
			c-2.994-4.166-6.242-11.227-6.292-16.405l0-0.056l-0.011-0.102c-0.417-3.563,0.792-8.34,1.714-11.805
			c1.398-5.253,3.098-10.419,4.636-15.632c2.261-7.663,7.135-23.651,1.511-30.526c-0.68-0.833-1.497-1.524-2.425-2.067l-0.115-0.067
			l-0.126-0.043c-2.848-0.984-6.063-1.381-8.873-0.053c-6.049,2.859-7.275,12.219-7.566,18.142l-0.045,0.923l-0.542-0.75
			c-7.573-10.475-13.433-24.467-5.18-36.344c4.654-6.698,12.597-10.765,20.434-12.393c9.313-1.936,20.958-0.825,28.109,6.061
			c10.464,10.075,5.199,26.33-0.536,37.42l-0.086,0.167l-0.188,0.008c-1.544,0.064-2.766,1.332-2.766,2.879
			c0,1.592,1.29,2.882,2.882,2.882s2.881-1.291,2.881-2.882c0-0.473-0.114-0.936-0.336-1.353l-0.081-0.151l0.079-0.152
			c3.878-7.437,7.192-16.232,6.895-24.734c-0.216-6.157-2.35-11.761-6.829-16.074c-7.834-7.543-20.345-8.903-30.587-6.775
			c-8.542,1.776-17.072,6.229-22.139,13.521c-3.884,5.591-5.16,12.051-4.173,18.747c1.254,8.513,5.958,16.526,11.2,23.206
			c1.853,2.361,3.646,1.579,3.685-1.325c0.068-5.194,0.67-15.977,6.069-18.528c2.083-0.984,4.522-0.597,6.626,0.11l0.035,0.012
			l0.031,0.019c0.708,0.433,1.33,0.974,1.847,1.623c2.652,3.326,2.052,8.899,1.338,12.814c-1.118,6.137-3.17,12.127-5.06,18.061
			c-2.269,7.122-5.949,17.889-5.066,25.345c0.072,5.758,3.483,13.264,6.811,17.892c2.628,3.656,6.075,6.958,10.299,8.667
			c4.621,1.868,9.397,1.472,13.885-0.568c1.242-0.564,2.433-1.236,3.574-1.983L113.091,153.459z M116.807,118.563
			c0.632,0,1.144,0.512,1.144,1.144s-0.512,1.144-1.144,1.144c-0.632,0-1.145-0.512-1.145-1.144S116.175,118.563,116.807,118.563z
			 M114.985,154.915c0.632,0,1.144,0.513,1.144,1.146c0,0.143-0.024,0.28-0.084,0.431l-0.061,0.129
			c-0.199,0.364-0.585,0.585-0.999,0.585c-0.632,0-1.144-0.513-1.144-1.145C113.841,155.428,114.353,154.915,114.985,154.915z
			 M74.846,66.691h-0.947V63.11c-0.345,0.325-0.753,0.565-1.222,0.721v-0.863c0.248-0.081,0.515-0.233,0.805-0.46
			c0.29-0.226,0.488-0.489,0.596-0.79h0.769V66.691z M121.331,84.532v0.877h-3.322c0.036-0.333,0.144-0.649,0.324-0.947
			c0.179-0.298,0.535-0.694,1.064-1.188c0.427-0.398,0.688-0.668,0.785-0.81c0.13-0.196,0.196-0.39,0.196-0.582
			c0-0.212-0.057-0.374-0.17-0.488c-0.113-0.114-0.27-0.17-0.469-0.17c-0.198,0-0.354,0.06-0.472,0.179
			c-0.117,0.119-0.184,0.317-0.202,0.594l-0.946-0.094c0.056-0.523,0.232-0.898,0.529-1.126c0.297-0.227,0.668-0.341,1.114-0.341
			c0.488,0,0.871,0.132,1.151,0.396c0.278,0.264,0.418,0.592,0.418,0.984c0,0.223-0.04,0.435-0.12,0.638
			c-0.079,0.201-0.206,0.412-0.38,0.633c-0.114,0.147-0.322,0.358-0.622,0.633c-0.3,0.275-0.49,0.457-0.569,0.548
			c-0.081,0.09-0.146,0.178-0.195,0.264H121.331z M151.813,100.065l0.919-0.112c0.028,0.235,0.106,0.415,0.234,0.539
			c0.128,0.125,0.282,0.187,0.463,0.187c0.194,0,0.358-0.075,0.491-0.224c0.133-0.148,0.199-0.349,0.199-0.602
			c0-0.238-0.063-0.428-0.19-0.567c-0.128-0.139-0.283-0.21-0.468-0.21c-0.121,0-0.265,0.024-0.433,0.072l0.104-0.77
			c0.256,0.007,0.45-0.049,0.585-0.167c0.135-0.118,0.201-0.275,0.201-0.472c0-0.167-0.05-0.299-0.148-0.399
			c-0.099-0.099-0.23-0.148-0.395-0.148c-0.163,0-0.301,0.056-0.415,0.169c-0.114,0.113-0.184,0.277-0.209,0.494l-0.87-0.148
			c0.061-0.302,0.151-0.542,0.275-0.723c0.121-0.18,0.293-0.321,0.512-0.425c0.219-0.103,0.465-0.154,0.736-0.154
			c0.466,0,0.839,0.148,1.119,0.447c0.231,0.244,0.348,0.521,0.348,0.828c0,0.435-0.237,0.784-0.712,1.043
			c0.283,0.061,0.508,0.197,0.679,0.409c0.169,0.212,0.254,0.467,0.254,0.767c0,0.434-0.158,0.805-0.475,1.111
			c-0.317,0.306-0.711,0.459-1.183,0.459c-0.446,0-0.817-0.129-1.11-0.388C152.031,100.82,151.86,100.482,151.813,100.065z
			 M155.729,122.033v-1.689l-1.131,1.689H155.729z M155.729,123.856v-0.995h-2.018v-0.825l2.14-3.146h0.796v3.143h0.614v0.828
			h-0.614v0.995H155.729z M129.531,140.81l0.945-0.098c0.028,0.214,0.107,0.385,0.239,0.51c0.134,0.125,0.287,0.188,0.461,0.188
			c0.198,0,0.366-0.08,0.503-0.243c0.137-0.162,0.206-0.406,0.206-0.731c0-0.307-0.067-0.536-0.205-0.688
			c-0.136-0.153-0.313-0.229-0.531-0.229c-0.273,0-0.519,0.12-0.734,0.359l-0.768-0.11l0.484-2.569h2.507v0.884h-1.788l-0.149,0.842
			c0.211-0.104,0.427-0.158,0.648-0.158c0.421,0,0.777,0.153,1.07,0.461c0.294,0.306,0.439,0.704,0.439,1.194
			c0,0.409-0.118,0.772-0.354,1.094c-0.322,0.438-0.769,0.656-1.34,0.656c-0.457,0-0.83-0.123-1.117-0.368
			C129.759,141.555,129.587,141.226,129.531,140.81z M135.607,148.563l0.067-0.059c3.102-2.658,4.43-6.812,4.145-10.813
			c-0.412-5.796-3.96-10.933-7.98-14.896l-0.944-0.902l-1.077-0.716c-3.106-1.92-6.547-2.865-10.187-2.97l-0.365-0.011l-0.093-0.134
			c-0.539-0.775-1.42-1.237-2.366-1.237c-1.591,0-2.882,1.291-2.882,2.882c0,1.592,1.29,2.882,2.882,2.882
			c1.037,0,1.992-0.557,2.504-1.456l0.097-0.17l0.196,0.006c3.463,0.118,6.668,1.073,9.527,3.059l0.019,0.014l0.018,0.017
			c3.818,3.575,7.514,8.432,7.897,13.83c0.22,3.09-0.75,6.356-3.115,8.457l-0.018,0.015l-0.019,0.013
			c-0.231,0.154-0.461,0.311-0.691,0.467l-0.258,0.174l-0.053-0.072l-1.09,0.726c-0.96,0.641-1.864,1.563-1.825,2.8
			c0.035,1.149,0.842,1.958,1.748,2.529l1.382,0.711l1.499,0.344c2.19,0.456,4.428,0.711,6.667,0.702
			c2.194-0.009,4.294,0.492,6.276,1.423l0.61,0.286l-0.604,0.299c-0.135,0.067-0.275,0.129-0.416,0.183
			c-0.92,0.351-1.959,0.495-2.938,0.548c-2.269,0.123-4.527,0.375-6.792,0.548c-2.91,0.22-5.83,0.362-8.749,0.284
			c-3.488-0.093-7.39-0.485-10.618-1.876l-0.202-0.087l0.005-0.22c0.001-0.026,0.001-0.053,0.001-0.079
			c0-1.592-1.29-2.882-2.881-2.882c-0.202,0-0.403,0.021-0.6,0.063c-1.356,0.576-1.043,0.405-1.869,1.332
			c-0.272,0.45-0.413,0.962-0.413,1.487c0,1.592,1.29,2.881,2.882,2.881c0.389,0,0.772-0.077,1.13-0.23l0.133-0.057l0.257,0.119
			c3.669,1.706,8.091,2.203,12.101,2.31c3.013,0.08,6.026-0.064,9.03-0.292c2.245-0.17,4.484-0.422,6.733-0.543
			c2.156-0.116,6.432-0.895,6.54-3.688c0.052-1.325-0.97-2.269-2.052-2.829l-0.053-0.025c-2.358-1.154-4.9-1.726-7.524-1.715
			c-2.437,0.011-4.865-0.326-7.23-0.9l-0.031-0.008l-0.029-0.014c-0.27-0.127-0.543-0.264-0.795-0.422l-0.489-0.307l0.517-0.259
			c0.046-0.023,0.092-0.048,0.137-0.074c0.158-0.093,0.314-0.19,0.471-0.289c0.572-0.361,1.139-0.731,1.701-1.106L135.607,148.563z"
			/>
	</defs>
	<clipPath id="SVGID_2_">
		<use xlink:href="#SVGID_1_"  overflow="visible"/>
	</clipPath>
	<linearGradient id="SVGID_3_" gradientUnits="userSpaceOnUse" x1="119.854" y1="189.8115" x2="118.994" y2="40.1815">
		<stop  offset="0" style="stop-color:#A70092"/>
		<stop  offset="0.55" style="stop-color:#305DA3"/>
		<stop  offset="1" style="stop-color:#6FC1BD"/>
	</linearGradient>
	<rect x="54.977" y="34.395" clip-path="url(#SVGID_2_)" fill="url(#SVGID_3_)" width="128.696" height="126.768"/>
</g>
<path fill="#010A27" d="M217.548,206.061l2.333-3.384h-0.737l-1.904,2.807l-1.889-2.807h-0.77l2.333,3.392v2.221h0.634V206.061z
	 M210.35,204.38c0,0.183-0.035,0.347-0.107,0.491c-0.072,0.146-0.173,0.268-0.302,0.366s-0.281,0.176-0.459,0.229
	c-0.176,0.054-0.369,0.08-0.578,0.08h-1.729v-2.285h1.736c0.455,0,0.81,0.098,1.061,0.294
	C210.225,203.751,210.35,204.026,210.35,204.38z M211.185,208.289l-1.725-2.292c0.22-0.037,0.423-0.101,0.609-0.192
	c0.188-0.091,0.35-0.204,0.485-0.341c0.137-0.136,0.242-0.296,0.317-0.48c0.074-0.185,0.111-0.395,0.111-0.63
	c0-0.251-0.048-0.48-0.145-0.687c-0.096-0.206-0.232-0.382-0.408-0.529c-0.177-0.147-0.389-0.261-0.638-0.341
	s-0.527-0.12-0.838-0.12h-2.413v5.612h0.633v-2.181h1.604l1.628,2.181H211.185z M201.525,205.491c0,0.32-0.056,0.621-0.165,0.902
	c-0.109,0.28-0.261,0.524-0.452,0.733c-0.193,0.208-0.424,0.372-0.694,0.493c-0.27,0.12-0.565,0.18-0.886,0.18
	s-0.616-0.061-0.887-0.185c-0.27-0.122-0.503-0.288-0.701-0.497c-0.197-0.208-0.352-0.454-0.461-0.737s-0.164-0.585-0.164-0.906
	c0-0.32,0.055-0.621,0.164-0.901c0.109-0.281,0.261-0.525,0.453-0.734c0.192-0.208,0.424-0.372,0.693-0.492
	c0.271-0.121,0.565-0.181,0.886-0.181c0.321,0,0.616,0.062,0.887,0.185c0.27,0.123,0.504,0.288,0.701,0.496
	c0.198,0.209,0.352,0.455,0.461,0.738S201.525,205.17,201.525,205.491z M202.183,205.475c0-0.39-0.068-0.76-0.205-1.11
	c-0.136-0.35-0.329-0.657-0.581-0.922c-0.251-0.265-0.552-0.475-0.901-0.629c-0.351-0.155-0.739-0.233-1.167-0.233
	s-0.818,0.079-1.171,0.237c-0.353,0.157-0.654,0.369-0.906,0.637c-0.251,0.268-0.446,0.576-0.585,0.926
	c-0.139,0.351-0.208,0.721-0.208,1.111c0,0.39,0.067,0.76,0.204,1.11c0.137,0.35,0.33,0.657,0.581,0.922s0.552,0.475,0.902,0.63
	c0.35,0.154,0.739,0.232,1.166,0.232c0.429,0,0.818-0.079,1.171-0.237c0.354-0.157,0.655-0.37,0.906-0.637
	c0.251-0.268,0.446-0.576,0.586-0.927C202.113,206.235,202.183,205.865,202.183,205.475z M190.992,203.262h1.884v-0.585h-4.401
	v0.585h1.885v5.027h0.633V203.262z M184.749,207.399l-0.417-0.409c-0.268,0.257-0.54,0.456-0.818,0.598
	c-0.277,0.142-0.608,0.212-0.994,0.212c-0.31,0-0.597-0.06-0.861-0.18c-0.265-0.121-0.495-0.285-0.689-0.493
	c-0.195-0.209-0.348-0.454-0.457-0.738c-0.11-0.283-0.165-0.588-0.165-0.914s0.055-0.629,0.165-0.91
	c0.109-0.28,0.262-0.524,0.457-0.733c0.194-0.208,0.425-0.371,0.689-0.489c0.265-0.117,0.552-0.176,0.861-0.176
	c0.386,0,0.716,0.072,0.99,0.216c0.275,0.145,0.533,0.329,0.774,0.554l0.433-0.465c-0.139-0.134-0.283-0.256-0.433-0.365
	s-0.313-0.203-0.489-0.28c-0.177-0.078-0.367-0.138-0.573-0.181s-0.438-0.064-0.693-0.064c-0.412,0-0.792,0.076-1.139,0.229
	c-0.348,0.152-0.646,0.361-0.898,0.626c-0.251,0.265-0.447,0.573-0.589,0.926c-0.143,0.354-0.213,0.729-0.213,1.131
	c0,0.406,0.07,0.786,0.213,1.139c0.142,0.353,0.338,0.658,0.589,0.918c0.252,0.259,0.548,0.464,0.89,0.613
	c0.343,0.149,0.717,0.225,1.123,0.225c0.257,0,0.489-0.024,0.697-0.072c0.209-0.048,0.404-0.115,0.586-0.2
	c0.182-0.086,0.352-0.188,0.509-0.309C184.453,207.684,184.604,207.549,184.749,207.399z M174.553,206.244h-2.558l1.283-2.862
	L174.553,206.244z M173.583,202.637h-0.594l-2.558,5.652h0.649l0.665-1.483h3.056l0.657,1.483h0.682L173.583,202.637z
	 M167.308,202.677h-4.033v5.612h0.633v-2.445h3.039v-0.577h-3.039v-2.005h3.4V202.677z M150.412,205.764v2.525h0.634v-5.612h-0.634
	v2.493h-3.238v-2.493h-0.634v5.612h0.634v-2.525H150.412z M141.732,204.488c0,0.188-0.037,0.357-0.108,0.51
	c-0.072,0.152-0.179,0.283-0.314,0.393c-0.137,0.109-0.299,0.193-0.49,0.253c-0.19,0.059-0.401,0.088-0.631,0.088h-1.392v-2.47
	h1.424c0.455,0,0.821,0.104,1.097,0.309C141.594,203.776,141.732,204.082,141.732,204.488z M142.365,204.465
	c0-0.278-0.05-0.528-0.148-0.75s-0.24-0.409-0.425-0.562c-0.185-0.151-0.406-0.27-0.665-0.353c-0.26-0.083-0.547-0.124-0.862-0.124
	h-2.101v5.612h0.633v-1.98h1.363c0.3,0,0.583-0.038,0.851-0.116c0.267-0.077,0.5-0.193,0.701-0.349
	c0.2-0.155,0.359-0.348,0.477-0.577C142.307,205.037,142.365,204.77,142.365,204.465z M132.45,206.244h-2.559l1.283-2.862
	L132.45,206.244z M131.479,202.637h-0.593l-2.559,5.652h0.65l0.665-1.483h3.055l0.657,1.483h0.682L131.479,202.637z M123.801,204.38
	c0,0.183-0.036,0.347-0.108,0.491c-0.072,0.146-0.172,0.268-0.302,0.366c-0.128,0.099-0.28,0.176-0.458,0.229
	c-0.177,0.054-0.369,0.08-0.579,0.08h-1.728v-2.285h1.735c0.456,0,0.811,0.098,1.062,0.294
	C123.676,203.751,123.801,204.026,123.801,204.38z M124.635,208.289l-1.724-2.292c0.219-0.037,0.422-0.101,0.609-0.192
	c0.188-0.091,0.349-0.204,0.485-0.341c0.136-0.136,0.241-0.296,0.316-0.48s0.112-0.395,0.112-0.63c0-0.251-0.049-0.48-0.145-0.687
	s-0.232-0.382-0.409-0.529c-0.176-0.147-0.389-0.261-0.637-0.341c-0.249-0.08-0.528-0.12-0.838-0.12h-2.414v5.612h0.633v-2.181
	h1.604l1.628,2.181H124.635z M115.545,207.53v-2.231h-2.317v0.562h1.708v1.4c-0.193,0.156-0.431,0.288-0.714,0.397
	c-0.283,0.111-0.585,0.166-0.906,0.166c-0.342,0-0.649-0.059-0.922-0.177c-0.272-0.117-0.505-0.281-0.697-0.49
	c-0.192-0.208-0.341-0.455-0.445-0.743c-0.104-0.286-0.156-0.599-0.156-0.936c0-0.315,0.053-0.614,0.16-0.895
	c0.107-0.282,0.254-0.527,0.441-0.735c0.187-0.208,0.412-0.375,0.673-0.498s0.548-0.185,0.858-0.185
	c0.198,0,0.378,0.016,0.541,0.048s0.313,0.076,0.449,0.133c0.136,0.056,0.264,0.122,0.381,0.2c0.118,0.077,0.23,0.164,0.337,0.26
	l0.409-0.48c-0.139-0.118-0.282-0.224-0.429-0.316c-0.146-0.094-0.304-0.173-0.473-0.237c-0.168-0.063-0.351-0.112-0.545-0.144
	c-0.195-0.032-0.41-0.049-0.646-0.049c-0.422,0-0.806,0.079-1.15,0.237c-0.345,0.157-0.64,0.369-0.886,0.637
	c-0.246,0.268-0.437,0.577-0.573,0.931c-0.136,0.353-0.204,0.722-0.204,1.106c0,0.4,0.065,0.777,0.196,1.131
	c0.131,0.353,0.321,0.66,0.569,0.922s0.548,0.468,0.898,0.617s0.747,0.225,1.19,0.225c0.476,0,0.905-0.084,1.287-0.253
	C114.961,207.966,115.283,207.764,115.545,207.53z M98.73,202.677h-4.057v5.612h4.097v-0.577h-3.463v-1.965h3.063v-0.577h-3.063
	v-1.916h3.423V202.677z M90.226,207.53v-2.231h-2.317v0.562h1.708v1.4c-0.193,0.156-0.431,0.288-0.714,0.397
	c-0.283,0.111-0.585,0.166-0.906,0.166c-0.342,0-0.649-0.059-0.922-0.177c-0.272-0.117-0.505-0.281-0.698-0.49
	c-0.192-0.208-0.34-0.455-0.445-0.743c-0.104-0.286-0.157-0.599-0.157-0.936c0-0.315,0.054-0.614,0.161-0.895
	c0.107-0.282,0.254-0.527,0.441-0.735s0.412-0.375,0.674-0.498c0.262-0.123,0.548-0.185,0.858-0.185
	c0.198,0,0.378,0.016,0.541,0.048s0.313,0.076,0.449,0.133c0.136,0.056,0.263,0.122,0.38,0.2c0.118,0.077,0.23,0.164,0.337,0.26
	l0.409-0.48c-0.139-0.118-0.282-0.224-0.429-0.316c-0.147-0.094-0.305-0.173-0.473-0.237c-0.168-0.063-0.35-0.112-0.545-0.144
	c-0.195-0.032-0.41-0.049-0.646-0.049c-0.422,0-0.806,0.079-1.15,0.237c-0.345,0.157-0.641,0.369-0.886,0.637
	c-0.246,0.268-0.437,0.577-0.573,0.931c-0.136,0.353-0.205,0.722-0.205,1.106c0,0.4,0.065,0.777,0.197,1.131
	c0.131,0.353,0.321,0.66,0.569,0.922c0.249,0.262,0.548,0.468,0.898,0.617c0.35,0.149,0.747,0.225,1.19,0.225
	c0.476,0,0.905-0.084,1.287-0.253C89.642,207.966,89.964,207.764,90.226,207.53z M80.351,205.491c0,0.315-0.055,0.606-0.164,0.874
	c-0.11,0.267-0.265,0.501-0.465,0.701c-0.2,0.2-0.445,0.357-0.733,0.469c-0.289,0.112-0.609,0.169-0.962,0.169H76.71v-4.442h1.315
	c0.353,0,0.674,0.058,0.962,0.173c0.289,0.114,0.533,0.272,0.733,0.473c0.201,0.2,0.355,0.438,0.465,0.71
	C80.296,204.89,80.351,205.181,80.351,205.491z M81.008,205.475c0-0.396-0.072-0.764-0.217-1.105
	c-0.144-0.343-0.349-0.64-0.613-0.891s-0.58-0.448-0.946-0.59c-0.366-0.142-0.769-0.212-1.207-0.212h-1.948v5.612h1.948
	c0.438,0,0.841-0.072,1.207-0.216c0.366-0.145,0.681-0.343,0.946-0.594s0.469-0.55,0.613-0.895
	C80.936,206.24,81.008,205.87,81.008,205.475z M71.742,202.677h-4.058v5.612h4.098v-0.577h-3.464v-1.965h3.063v-0.577h-3.063v-1.916
	h3.424V202.677z M59.702,208.289h3.792v-0.585h-3.159v-5.027h-0.633V208.289z M49.666,207.352l-1.604-4.675h-0.689l2.004,5.652
	h0.529l1.547-4.554l1.539,4.554h0.538l2.004-5.652H54.87l-1.604,4.675l-1.539-4.691h-0.521L49.666,207.352z M43.078,205.491
	c0,0.32-0.055,0.621-0.164,0.902c-0.109,0.28-0.261,0.524-0.453,0.733c-0.192,0.208-0.424,0.372-0.694,0.493
	c-0.27,0.12-0.565,0.18-0.886,0.18s-0.616-0.061-0.886-0.185c-0.271-0.122-0.504-0.288-0.702-0.497
	c-0.198-0.208-0.352-0.454-0.461-0.737s-0.165-0.585-0.165-0.906c0-0.32,0.055-0.621,0.165-0.901
	c0.11-0.281,0.261-0.525,0.453-0.734c0.192-0.208,0.424-0.372,0.693-0.492c0.271-0.121,0.566-0.181,0.886-0.181
	c0.321,0,0.616,0.062,0.886,0.185s0.503,0.288,0.702,0.496c0.197,0.209,0.352,0.455,0.461,0.738S43.078,205.17,43.078,205.491z
	 M43.735,205.475c0-0.39-0.068-0.76-0.205-1.11c-0.136-0.35-0.33-0.657-0.582-0.922c-0.251-0.265-0.552-0.475-0.902-0.629
	c-0.35-0.155-0.739-0.233-1.167-0.233s-0.818,0.079-1.17,0.237c-0.353,0.157-0.655,0.369-0.906,0.637s-0.447,0.576-0.585,0.926
	c-0.14,0.351-0.209,0.721-0.209,1.111c0,0.39,0.068,0.76,0.205,1.11c0.136,0.35,0.33,0.657,0.581,0.922
	c0.251,0.265,0.552,0.475,0.902,0.63c0.35,0.154,0.739,0.232,1.167,0.232s0.818-0.079,1.171-0.237
	c0.353-0.157,0.655-0.37,0.906-0.637c0.251-0.268,0.446-0.576,0.585-0.927C43.666,206.235,43.735,205.865,43.735,205.475z
	 M33.034,207.175l-3.536-4.498h-0.593v5.612h0.617v-4.603l3.625,4.603h0.505v-5.612h-0.618V207.175z M22.389,205.13l2.405-2.453
	h-0.818l-3.223,3.352v-3.352H20.12v5.612h0.633v-1.507l1.195-1.211l2.157,2.718h0.794L22.389,205.13z"/>
</svg>
