<?xml version="1.0" ?><svg id="Capa_1" style="enable-background:new 0 0 446.8 442.4;" version="1.1" viewBox="0 0 446.8 442.4" xml:space="preserve" xmlns="http://www.w3.org/2000/svg" xmlns:xlink="http://www.w3.org/1999/xlink"><path fill="#9c9da4" d="M429.6,117l-99.7-99.7C318.7,6.1,303.9,0,288.1,0c-15.8,0-30.6,6.1-41.7,17.2L230,33.6c-11.1,11.1-17.2,25.9-17.2,41.7  c0,11.8,3.4,23,9.8,32.6l-135,69c-27.9,14.2-47.4,40-53.6,70.7L0,415.9l26.5,26.5l168.2-33.9c30.7-6.2,56.5-25.7,70.7-53.6  l68.6-134.2c10.8,8.9,24.1,13.4,37.4,13.4c15.1,0,30.2-5.8,41.7-17.3l16.4-16.4C452.6,177.5,452.6,140,429.6,117z M239.2,341.5  c-10.1,19.8-28.4,33.7-50.2,38.1L57.1,406.2l81.3-81.3c5,2.3,10.4,3.5,15.8,3.5c9.7,0,19.5-3.7,26.9-11.1l0,0  c14.8-14.8,14.8-39,0-53.8c-14.8-14.8-39-14.8-53.8,0c-10.7,10.7-13.6,26.2-8.9,39.6l-82.2,82.2l26.5-131.8  c4.4-21.8,18.3-40.1,38.1-50.2l142.4-72.8l68.6,68.6L239.2,341.5z M148.2,284.4c1.7-1.7,3.8-2.5,6-2.5c2.2,0,4.4,0.8,6,2.5  c3.3,3.3,3.3,8.7,0,12c-3.3,3.3-8.7,3.3-12,0C144.9,293.1,144.9,287.7,148.2,284.4z M408.7,179.6L392.3,196  c-5.5,5.5-13,8.6-20.9,8.6c-7.9,0-15.3-3.1-20.9-8.6l-99.7-99.7c-5.5-5.5-8.6-13-8.6-20.9c0-7.9,3.1-15.3,8.6-20.9l16.4-16.4  c5.5-5.5,13-8.6,20.9-8.6s15.3,3.1,20.9,8.6l99.7,99.7C420.2,149.4,420.2,168.1,408.7,179.6z"/></svg>